<svg width="32" height="32" viewBox="0 0 32 32" fill="none" xmlns="http://www.w3.org/2000/svg">
<g clip-path="url(#clip0_11_2187)">
<path d="M12 25.3333C6.26667 27.1999 6.26667 21.9999 4 21.3333M20 27.9999V23.3333C20 21.9999 20.1333 21.4666 19.3333 20.6666C23.0667 20.2666 26.6667 18.7999 26.6667 12.6666C26.665 11.0732 26.0434 9.54301 24.9333 8.39993C25.454 7.01589 25.406 5.4821 24.8 4.13327C24.8 4.13327 23.3333 3.73327 20.1333 5.8666C17.423 5.16072 14.577 5.16072 11.8667 5.8666C8.66667 3.73327 7.2 4.13327 7.2 4.13327C6.59397 5.4821 6.54604 7.01589 7.06667 8.39993C5.9566 9.54301 5.33496 11.0732 5.33333 12.6666C5.33333 18.7999 8.93333 20.2666 12.6667 20.6666C11.8667 21.4666 11.8667 22.2666 12 23.3333V27.9999" stroke="#F3EFE0" stroke-width="2" stroke-linecap="round" stroke-linejoin="round"/>
</g>
<defs>
<clipPath id="clip0_11_2187">
<rect width="32" height="32" fill="white"/>
</clipPath>
</defs>
</svg>
